<?xml version="1.0" encoding="UTF-8"?>
<!--
    Image is based on original work of Max Froumentin (mf@w3.org) which
    used to be available at:

    http://people.w3.org/maxf/ChessGML/ChessSophia.svg

    These images are under the W3C Software Notice and License, see
    COPYING.html for details.
-->
<svg xmlns="http://www.w3.org/2000/svg" xmlns:xlink="http://www.w3.org/1999/xlink" width="1000pt" height="1000pt" viewBox="0 0 1000 1000" version="1.1">
<g id="surface0">
<path style="stroke-width:2;stroke-linecap:butt;stroke-linejoin:miter;stroke:white;stroke-opacity:1;stroke-miterlimit:10;fill-rule:nonzero;fill:white;fill-opacity:1;" d="M 56 782 C 70 779 84 775 102 769 C 130 759 162 751 194 751 C 206 751 220 751 235 753 C 251 755 269 756 286 756 C 327 756 383 751 416 728 L 416 725 L 308 671 L 339 580 C 298 558 268 516 268 457 C 268 382 314 314 384 273 C 426 248 436 238 449 222 L 449 219 C 426 204 410 181 410 147 C 410 97 450 57 500 57 C 550 57 590 97 590 147 C 590 181 574 204 551 219 L 551 222 C 564 238 574 248 616 273 C 686 314 732 382 732 457 C 732 516 702 558 661 580 L 692 671 L 584 725 L 584 728 C 617 751 673 756 714 756 C 731 756 749 755 765 753 C 780 751 794 751 806 751 C 838 751 870 759 898 769 C 916 775 930 779 944 782 L 893 943 C 872 939 857 936 833 928 C 798 916 747 911 689 911 C 650 911 600 910 574 900 C 540 887 522 872 500 853 C 478 872 460 887 426 900 C 400 910 350 911 311 911 C 253 911 202 916 167 928 C 143 936 128 939 107 943 L 56 782"/>
<path style="stroke:none;fill-rule:nonzero;fill:black;fill-opacity:1;" d="M 56 782 C 70 779 84 775 102 769 C 130 759 162 751 194 751 C 206 751 220 751 235 753 C 251 755 269 756 286 756 C 327 756 383 751 416 728 L 416 725 L 308 671 L 339 580 C 298 558 268 516 268 457 C 268 382 314 314 384 273 C 426 248 436 238 449 222 L 449 219 C 426 204 410 181 410 147 C 410 97 450 57 500 57 C 550 57 590 97 590 147 C 590 181 574 204 551 219 L 551 222 C 564 238 574 248 616 273 C 686 314 732 382 732 457 C 732 516 702 558 661 580 L 692 671 L 584 725 L 584 728 C 617 751 673 756 714 756 C 731 756 749 755 765 753 C 780 751 794 751 806 751 C 838 751 870 759 898 769 C 916 775 930 779 944 782 L 893 943 C 872 939 857 936 833 928 C 798 916 747 911 689 911 C 650 911 600 910 574 900 C 540 887 522 872 500 853 C 478 872 460 887 426 900 C 400 910 350 911 311 911 C 253 911 202 916 167 928 C 143 936 128 939 107 943 L 56 782 M 369 661 L 371 663 C 405 650 450 639 500 639 C 550 639 595 650 629 663 L 631 661 L 621 631 C 592 618 545 608 500 608 C 455 608 408 618 379 631 L 369 661 M 389 590 L 391 591 C 413 578 455 568 500 568 C 545 568 587 578 609 591 L 611 590 L 601 558 C 585 548 544 539 500 539 C 456 539 415 548 399 558 L 389 590 M 428 449 L 470 449 L 470 491 L 530 491 L 530 449 L 572 449 L 572 389 L 530 389 L 530 347 L 470 347 L 470 389 L 428 389 L 428 449"/>
</g>
</svg>
