<?xml version="1.0" encoding="UTF-8"?>
<!--
    Image is based on original work of Max Froumentin (mf@w3.org) which
    used to be available at:

    http://people.w3.org/maxf/ChessGML/ChessSophia.svg

    These images are under the W3C Software Notice and License, see
    COPYING.html for details.
-->
<svg xmlns="http://www.w3.org/2000/svg" xmlns:xlink="http://www.w3.org/1999/xlink" width="1000pt" height="1000pt" viewBox="0 0 1000 1000" version="1.1">
<g id="surface0">
<path style="stroke-width:2;stroke-linecap:butt;stroke-linejoin:miter;stroke:white;stroke-opacity:1;stroke-miterlimit:10;fill-rule:nonzero;fill:white;fill-opacity:1;" d="M 120 641 C 120 607 137 571 160 528 C 182 486 202 433 216 372 C 245 253 278 238 296 232 L 296 145 L 300 145 L 384 212 L 388 212 L 438 122 L 440 122 L 491 229 C 502 226 514 224 526 224 C 732 224 850 576 882 892 L 331 892 C 331 814 359 762 384 718 C 403 684 420 651 420 618 L 420 608 L 305 692 C 278 725 249 740 226 740 C 211 740 198 733 191 720 C 187 721 183 721 179 721 C 147 721 120 693 120 641"/>
<path style="stroke:none;fill-rule:nonzero;fill:black;fill-opacity:1;" d="M 120 641 C 120 607 137 571 160 528 C 182 486 202 433 216 372 C 245 253 278 238 296 232 L 296 145 L 300 145 L 384 212 L 388 212 L 438 122 L 440 122 L 491 229 C 502 226 514 224 526 224 C 732 224 850 576 882 892 L 331 892 C 331 814 359 762 384 718 C 403 684 420 651 420 618 L 420 608 L 305 692 C 278 725 249 740 226 740 C 211 740 198 733 191 720 C 187 721 183 721 179 721 C 147 721 120 693 120 641 M 191 625 C 191 631 196 638 201 638 C 205 638 210 632 214 627 C 222 618 222 618 228 616 C 234 614 243 611 243 605 C 243 598 234 592 228 592 C 198 592 191 620 191 625 M 295 436 L 310 436 C 352 436 381 412 381 337 C 381 325 380 317 380 317 C 375 320 369 323 363 326 C 332 341 295 359 295 436 M 494 276 C 494 290 507 296 525 296 C 575 296 647 369 702 487 C 752 596 787 786 787 850 C 787 864 797 867 806 867 C 814 867 830 863 830 855 C 830 763 790 584 743 477 C 685 345 600 260 531 260 C 511 260 494 263 494 276"/>
</g>
</svg>
