<?xml version="1.0" encoding="UTF-8"?>
<!--
    Image is based on original work of Max Froumentin (mf@w3.org) which
    used to be available at:

    http://people.w3.org/maxf/ChessGML/ChessSophia.svg

    These images are under the W3C Software Notice and License, see
    COPYING.html for details.
-->
<svg xmlns="http://www.w3.org/2000/svg" xmlns:xlink="http://www.w3.org/1999/xlink" width="1000pt" height="1000pt" viewBox="0 0 1000 1000" version="1.1">
<g id="surface0">
<path style="stroke-width:2;stroke-linecap:butt;stroke-linejoin:miter;stroke:white;stroke-opacity:1;stroke-miterlimit:10;fill-rule:nonzero;fill:white;fill-opacity:1;" d="M 56 495 C 56 403 127 364 208 364 C 269 364 320 384 377 422 L 379 420 C 379 420 368 393 368 358 C 368 308 388 241 470 223 L 470 181 L 410 181 L 410 121 L 470 121 L 470 61 L 530 61 L 530 121 L 590 121 L 590 181 L 530 181 L 530 223 C 612 241 632 308 632 358 C 632 393 621 420 621 420 L 623 422 C 680 384 731 364 792 364 C 873 364 944 403 944 495 C 944 622 869 693 804 730 L 782 868 C 770 898 705 939 500 939 C 295 939 230 898 218 868 L 196 730 C 131 693 56 622 56 495"/>
<path style="stroke:none;fill-rule:nonzero;fill:black;fill-opacity:1;" d="M 56 495 C 56 403 127 364 208 364 C 269 364 320 384 377 422 L 379 420 C 379 420 368 393 368 358 C 368 308 388 241 470 223 L 470 181 L 410 181 L 410 121 L 470 121 L 470 61 L 530 61 L 530 121 L 590 121 L 590 181 L 530 181 L 530 223 C 612 241 632 308 632 358 C 632 393 621 420 621 420 L 623 422 C 680 384 731 364 792 364 C 873 364 944 403 944 495 C 944 622 869 693 804 730 L 782 868 C 770 898 705 939 500 939 C 295 939 230 898 218 868 L 196 730 C 131 693 56 622 56 495 M 116 505 C 116 599 170 652 225 684 C 291 664 391 656 470 656 C 450 495 289 424 218 424 C 147 424 116 453 116 505 M 150 519 C 150 489 168 457 208 457 C 319 457 413 555 427 628 C 356 628 287 634 231 650 C 168 612 150 549 150 519 M 258 797 L 264 840 C 360 825 428 819 500 819 C 572 819 640 825 736 840 L 742 797 C 652 780 577 773 500 773 C 423 773 348 780 258 797 M 530 656 C 609 656 709 664 775 684 C 830 652 884 599 884 505 C 884 453 853 424 782 424 C 711 424 550 495 530 656 M 573 626 C 587 553 681 455 792 455 C 832 455 850 487 850 517 C 850 547 832 610 769 648 C 713 632 644 626 573 626"/>
</g>
</svg>
