<?xml version="1.0" encoding="UTF-8"?>
<!--
    Image is based on original work of Max Froumentin (mf@w3.org) which
    used to be available at:

    http://people.w3.org/maxf/ChessGML/ChessSophia.svg

    These images are under the W3C Software Notice and License, see
    COPYING.html for details.
-->
<svg xmlns="http://www.w3.org/2000/svg" xmlns:xlink="http://www.w3.org/1999/xlink" width="1000pt" height="1000pt" viewBox="0 0 1000 1000" version="1.1">
<g id="surface0">
<path style="stroke-width:2;stroke-linecap:butt;stroke-linejoin:miter;stroke:white;stroke-opacity:1;stroke-miterlimit:10;fill-rule:nonzero;fill:white;fill-opacity:1;" d="M 55 228 C 55 192 85 162 121 162 C 157 162 187 192 187 228 C 187 238 184 257 169 273 L 289 505 L 289 243 C 264 238 238 218 238 179 C 238 143 267 114 303 114 C 339 114 368 143 368 179 C 368 203 361 216 340 233 L 431 495 L 469 213 C 452 204 435 188 435 154 C 435 118 464 89 500 89 C 536 89 565 118 565 154 C 565 188 548 204 531 213 L 569 495 L 660 233 C 639 216 632 203 632 179 C 632 143 661 114 697 114 C 733 114 762 143 762 179 C 762 218 736 238 711 243 L 711 505 L 831 273 C 816 257 813 238 813 228 C 813 192 843 162 879 162 C 915 162 945 192 945 228 C 945 260 923 291 882 294 L 824 599 C 822 612 821 621 821 626 C 821 636 821 656 801 666 C 761 686 740 737 740 767 C 740 794 754 822 764 840 C 768 848 771 855 771 858 C 771 911 591 939 500 939 C 409 939 229 911 229 858 C 229 855 232 848 236 840 C 246 822 260 794 260 767 C 260 737 239 686 199 666 C 179 656 179 636 179 626 C 179 621 178 612 176 599 L 118 294 C 77 291 55 260 55 228"/>
<path style="stroke:none;fill-rule:nonzero;fill:black;fill-opacity:1;" d="M 55 228 C 55 192 85 162 121 162 C 157 162 187 192 187 228 C 187 238 184 257 169 273 L 289 505 L 289 243 C 264 238 238 218 238 179 C 238 143 267 114 303 114 C 339 114 368 143 368 179 C 368 203 361 216 340 233 L 431 495 L 469 213 C 452 204 435 188 435 154 C 435 118 464 89 500 89 C 536 89 565 118 565 154 C 565 188 548 204 531 213 L 569 495 L 660 233 C 639 216 632 203 632 179 C 632 143 661 114 697 114 C 733 114 762 143 762 179 C 762 218 736 238 711 243 L 711 505 L 831 273 C 816 257 813 238 813 228 C 813 192 843 162 879 162 C 915 162 945 192 945 228 C 945 260 923 291 882 294 L 824 599 C 822 612 821 621 821 626 C 821 636 821 656 801 666 C 761 686 740 737 740 767 C 740 794 754 822 764 840 C 768 848 771 855 771 858 C 771 911 591 939 500 939 C 409 939 229 911 229 858 C 229 855 232 848 236 840 C 246 822 260 794 260 767 C 260 737 239 686 199 666 C 179 656 179 636 179 626 C 179 621 178 612 176 599 L 118 294 C 77 291 55 260 55 228 M 96 228 C 96 242 107 253 121 253 C 135 253 146 242 146 228 C 146 214 135 203 121 203 C 107 203 96 214 96 228 M 179 390 L 218 610 C 224 612 229 612 235 612 C 257 612 277 601 287 585 L 183 389 L 179 390 M 274 654 C 279 660 283 669 283 669 C 362 651 439 641 500 641 C 561 641 638 651 717 669 C 717 669 721 660 726 654 C 716 651 690 636 677 620 C 660 625 647 627 634 627 C 606 627 585 616 558 599 C 540 609 520 615 500 615 C 480 615 460 609 442 599 C 415 616 394 627 366 627 C 353 627 340 625 323 620 C 310 636 284 651 274 654 M 278 179 C 278 193 289 204 303 204 C 317 204 328 193 328 179 C 328 165 317 154 303 154 C 289 154 278 165 278 179 M 301 710 C 311 733 315 752 315 769 C 315 784 313 795 309 808 L 311 810 C 367 796 439 790 500 790 C 561 790 633 796 689 810 L 691 808 C 687 795 685 784 685 769 C 685 752 689 733 699 710 C 655 698 571 686 500 686 C 429 686 345 698 301 710 M 331 351 L 335 573 C 344 577 355 579 364 579 C 381 579 397 572 408 560 L 335 350 L 331 351 M 346 863 C 394 877 467 879 500 879 C 533 879 606 877 654 863 L 654 861 C 606 847 534 845 500 845 C 466 845 394 847 346 861 L 346 863 M 463 546 C 473 554 487 557 500 557 C 513 557 527 554 537 546 L 502 315 L 498 315 L 463 546 M 475 154 C 475 168 486 179 500 179 C 514 179 525 168 525 154 C 525 140 514 129 500 129 C 486 129 475 140 475 154 M 592 560 C 603 572 619 579 636 579 C 645 579 656 577 665 573 L 669 351 L 665 350 L 592 560 M 672 179 C 672 193 683 204 697 204 C 711 204 722 193 722 179 C 722 165 711 154 697 154 C 683 154 672 165 672 179 M 713 585 C 723 601 743 612 765 612 C 771 612 776 612 782 610 L 821 390 L 817 389 L 713 585 M 854 228 C 854 242 865 253 879 253 C 893 253 904 242 904 228 C 904 214 893 203 879 203 C 865 203 854 214 854 228"/>
</g>
</svg>
