<?xml version="1.0" encoding="UTF-8"?>
<!--
    Image is based on original work of Max Froumentin (mf@w3.org) which
    used to be available at:

    http://people.w3.org/maxf/ChessGML/ChessSophia.svg

    These images are under the W3C Software Notice and License, see
    COPYING.html for details.
-->
<svg xmlns="http://www.w3.org/2000/svg" xmlns:xlink="http://www.w3.org/1999/xlink" width="1000pt" height="1000pt" viewBox="0 0 1000 1000" version="1.1">
<g id="surface0">
<path style="stroke-width:2;stroke-linecap:butt;stroke-linejoin:miter;stroke:white;stroke-opacity:1;stroke-miterlimit:10;fill-rule:nonzero;fill:white;fill-opacity:1;" d="M 56 495 C 56 403 127 364 208 364 C 269 364 320 384 377 422 L 379 420 C 379 420 368 393 368 358 C 368 308 388 241 470 223 L 470 181 L 410 181 L 410 121 L 470 121 L 470 61 L 530 61 L 530 121 L 590 121 L 590 181 L 530 181 L 530 223 C 612 241 632 308 632 358 C 632 393 621 420 621 420 L 623 422 C 680 384 731 364 792 364 C 873 364 944 403 944 495 C 944 622 869 693 804 730 L 782 868 C 770 898 705 939 500 939 C 295 939 230 898 218 868 L 196 730 C 131 693 56 622 56 495"/>
<path style="stroke:none;fill-rule:nonzero;fill:black;fill-opacity:1;" d="M 56 495 C 56 403 127 364 208 364 C 269 364 320 384 377 422 L 379 420 C 379 420 368 393 368 358 C 368 308 388 241 470 223 L 470 181 L 410 181 L 410 121 L 470 121 L 470 61 L 530 61 L 530 121 L 590 121 L 590 181 L 530 181 L 530 223 C 612 241 632 308 632 358 C 632 393 621 420 621 420 L 623 422 C 680 384 731 364 792 364 C 873 364 944 403 944 495 C 944 622 869 693 804 730 L 782 868 C 770 898 705 939 500 939 C 295 939 230 898 218 868 L 196 730 C 131 693 56 622 56 495 M 116 505 C 116 599 170 652 225 684 C 291 664 391 656 470 656 C 450 495 289 424 218 424 C 147 424 116 453 116 505 M 258 738 L 268 819 C 357 800 432 797 500 797 C 568 797 643 800 732 819 L 742 738 C 651 717 587 716 500 716 C 413 716 349 717 258 738 M 325 871 C 383 885 440 889 500 889 C 560 889 617 885 675 871 L 675 867 C 617 853 560 849 500 849 C 440 849 383 853 325 867 L 325 871 M 428 365 C 428 416 463 488 498 555 L 502 555 C 537 488 572 416 572 365 C 572 309 545 283 500 283 C 455 283 428 309 428 365 M 530 656 C 609 656 709 664 775 684 C 830 652 884 599 884 505 C 884 453 853 424 782 424 C 711 424 550 495 530 656"/>
</g>
</svg>
