<?xml version="1.0" encoding="UTF-8"?>
<!--
    Image is based on original work of Max Froumentin (mf@w3.org) which
    used to be available at:

    http://people.w3.org/maxf/ChessGML/ChessSophia.svg

    These images are under the W3C Software Notice and License, see
    COPYING.html for details.
-->
<svg xmlns="http://www.w3.org/2000/svg" xmlns:xlink="http://www.w3.org/1999/xlink" width="1000pt" height="1000pt" viewBox="0 0 1000 1000" version="1.1">
<g id="surface0">
<path style="stroke-width:2;stroke-linecap:butt;stroke-linejoin:miter;stroke:white;stroke-opacity:1;stroke-miterlimit:10;fill-rule:nonzero;fill:white;fill-opacity:1;" d="M 56 782 C 70 779 84 775 102 769 C 130 759 162 751 194 751 C 206 751 220 751 235 753 C 251 755 269 756 286 756 C 327 756 383 751 416 728 L 416 725 L 308 671 L 339 580 C 298 558 268 516 268 457 C 268 382 314 314 384 273 C 426 248 436 238 449 222 L 449 219 C 426 204 410 181 410 147 C 410 97 450 57 500 57 C 550 57 590 97 590 147 C 590 181 574 204 551 219 L 551 222 C 564 238 574 248 616 273 C 686 314 732 382 732 457 C 732 516 702 558 661 580 L 692 671 L 584 725 L 584 728 C 617 751 673 756 714 756 C 731 756 749 755 765 753 C 780 751 794 751 806 751 C 838 751 870 759 898 769 C 916 775 930 779 944 782 L 893 943 C 872 939 857 936 833 928 C 798 916 747 911 689 911 C 650 911 600 910 574 900 C 540 887 522 872 500 853 C 478 872 460 887 426 900 C 400 910 350 911 311 911 C 253 911 202 916 167 928 C 143 936 128 939 107 943 L 56 782"/>
<path style="stroke:none;fill-rule:nonzero;fill:black;fill-opacity:1;" d="M 56 782 C 70 779 84 775 102 769 C 130 759 162 751 194 751 C 206 751 220 751 235 753 C 251 755 269 756 286 756 C 327 756 383 751 416 728 L 416 725 L 308 671 L 339 580 C 298 558 268 516 268 457 C 268 382 314 314 384 273 C 426 248 436 238 449 222 L 449 219 C 426 204 410 181 410 147 C 410 97 450 57 500 57 C 550 57 590 97 590 147 C 590 181 574 204 551 219 L 551 222 C 564 238 574 248 616 273 C 686 314 732 382 732 457 C 732 516 702 558 661 580 L 692 671 L 584 725 L 584 728 C 617 751 673 756 714 756 C 731 756 749 755 765 753 C 780 751 794 751 806 751 C 838 751 870 759 898 769 C 916 775 930 779 944 782 L 893 943 C 872 939 857 936 833 928 C 798 916 747 911 689 911 C 650 911 600 910 574 900 C 540 887 522 872 500 853 C 478 872 460 887 426 900 C 400 910 350 911 311 911 C 253 911 202 916 167 928 C 143 936 128 939 107 943 L 56 782 M 127 832 L 147 883 C 168 872 190 866 208 863 C 247 855 280 852 314 851 C 357 850 451 841 500 792 C 549 841 643 850 686 851 C 720 852 753 855 792 863 C 810 866 832 872 853 883 L 873 832 C 838 820 798 811 748 809 C 719 808 670 805 637 800 C 583 792 568 782 540 762 L 460 762 C 432 782 417 792 363 800 C 330 805 281 808 252 809 C 202 811 162 820 127 832 M 328 456 C 328 496 335 530 380 550 C 419 537 457 530 500 530 C 543 530 581 537 620 550 C 665 530 672 496 672 456 C 672 382 620 334 576 308 C 547 291 519 274 501 239 L 499 239 C 481 274 453 291 424 308 C 380 334 328 382 328 456 M 379 621 C 404 611 452 606 500 606 C 548 606 596 611 621 621 C 621 621 615 603 611 591 C 591 581 530 575 500 575 C 470 575 409 581 389 591 C 385 603 379 621 379 621 M 399 662 C 439 668 460 671 500 671 C 540 671 561 668 601 662 L 601 660 C 561 654 540 651 500 651 C 460 651 439 654 399 660 L 399 662 M 428 449 L 428 389 L 470 389 L 470 347 L 530 347 L 530 389 L 572 389 L 572 449 L 530 449 L 530 491 L 470 491 L 470 449 L 428 449 M 470 147 C 470 164 483 177 500 177 C 517 177 530 164 530 147 C 530 130 517 117 500 117 C 483 117 470 130 470 147"/>
</g>
</svg>
