<?xml version="1.0" encoding="UTF-8"?>
<!--
	(c) 2010 Alexey Kryukov

    This work is free; you can redistribute it and/or modify
    it under the terms of the GNU General Public License as published by
    the Free Software Foundation; either version 2 of the License, or
    (at your option) any later version.

    This work is distributed in the hope that it will be useful,
    but WITHOUT ANY WARRANTY; without even the implied warranty of
    MERCHANTABILITY or FITNESS FOR A PARTICULAR PURPOSE.  See the
    GNU General Public License for more details.

    You should have received a copy of the GNU General Public License
    along with this program; if not, write to the Free Software
    Foundation, Inc., 51 Franklin Street, Fifth Floor, Boston, MA 02110-1301 USA
-->
<svg xmlns="http://www.w3.org/2000/svg" xmlns:xlink="http://www.w3.org/1999/xlink" width="1000pt" height="1000pt" viewBox="0 0 1000 1000" version="1.1">
<g id="surface0">
<path style="stroke-width:2;stroke-linecap:butt;stroke-linejoin:miter;stroke:white;stroke-opacity:1;stroke-miterlimit:10;fill-rule:nonzero;fill:white;fill-opacity:1;" d="M 62 910 C 100 868 154 828 220 828 C 252 828 277 833 299 841 C 322 849 359 858 376 858 C 393 858 411 854 422 841 L 422 837 C 382 826 349 814 314 786 C 326 751 334 720 334 679 C 334 656 324 634 306 600 C 288 566 270 505 270 454 C 270 282 423 158 467 124 C 451 110 449 94 449 87 C 449 68 460 52 485 52 C 508 52 518 69 518 83 C 518 100 510 113 498 122 C 513 134 532 150 545 162 C 558 150 566 140 576 127 C 565 118 552 105 552 87 C 552 68 565 52 585 52 C 607 52 618 68 618 82 C 618 100 607 113 598 123 C 650 174 734 269 734 401 C 734 465 718 518 696 574 C 683 608 672 645 672 681 C 672 718 676 741 686 778 C 660 802 635 822 576 834 L 576 838 C 585 849 600 858 614 858 C 644 858 660 857 690 847 C 724 836 755 828 781 828 C 858 828 914 866 938 894 L 930 905 C 914 894 899 886 874 882 L 872 885 C 890 897 903 922 910 936 L 901 944 C 872 912 846 884 780 884 C 754 884 724 893 695 903 C 667 913 644 916 604 916 C 562 916 528 883 502 850 L 498 850 C 480 879 446 916 406 916 C 364 916 346 912 311 900 C 291 893 265 884 236 884 C 176 884 155 900 108 944 L 99 936 C 110 917 120 904 135 891 L 132 888 C 115 893 93 904 71 921 L 62 910 "/>
<path style="stroke:none;fill-rule:nonzero;fill:black;fill-opacity:1;" d="M 62 910 C 100 868 154 828 220 828 C 252 828 277 833 299 841 C 322 849 359 858 376 858 C 393 858 411 854 422 841 L 422 837 C 382 826 349 814 314 786 C 326 751 334 720 334 679 C 334 656 324 634 306 600 C 288 566 270 505 270 454 C 270 282 423 158 467 124 C 451 110 449 94 449 87 C 449 68 460 52 485 52 C 508 52 518 69 518 83 C 518 100 510 113 498 122 C 513 134 532 150 545 162 C 558 150 566 140 576 127 C 565 118 552 105 552 87 C 552 68 565 52 585 52 C 607 52 618 68 618 82 C 618 100 607 113 598 123 C 650 174 734 269 734 401 C 734 465 718 518 696 574 C 683 608 672 645 672 681 C 672 718 676 741 686 778 C 660 802 635 822 576 834 L 576 838 C 585 849 600 858 614 858 C 644 858 660 857 690 847 C 724 836 755 828 781 828 C 858 828 914 866 938 894 L 930 905 C 914 894 899 886 874 882 L 872 885 C 890 897 903 922 910 936 L 901 944 C 872 912 846 884 780 884 C 754 884 724 893 695 903 C 667 913 644 916 604 916 C 562 916 528 883 502 850 L 498 850 C 480 879 446 916 406 916 C 364 916 346 912 311 900 C 291 893 265 884 236 884 C 176 884 155 900 108 944 L 99 936 C 110 917 120 904 135 891 L 132 888 C 115 893 93 904 71 921 L 62 910 M 329 780 C 340 776 348 773 355 772 C 409 758 440 750 500 750 C 560 750 591 758 645 772 C 651 773 660 776 671 780 C 671 773 666 757 663 756 C 646 746 576 728 500 728 C 424 728 354 746 337 756 C 333 757 329 773 329 780 M 335 636 C 335 643 335 645 339 652 C 356 646 364 643 375 639 C 409 627 456 620 500 620 C 544 620 591 627 625 639 C 636 643 644 646 661 652 C 665 645 665 643 665 636 C 665 617 564 596 500 596 C 436 596 335 617 335 636 M 342 731 L 345 732 C 388 692 388 682 388 678 C 388 672 372 667 348 662 C 348 686 348 706 342 731 M 364 391 C 364 402 365 410 375 410 C 381 410 392 409 407 406 C 421 403 437 401 445 401 C 457 401 460 409 460 418 L 460 529 C 460 541 462 544 482 544 C 502 544 504 541 504 529 L 504 418 C 504 409 507 401 519 401 C 527 401 543 403 557 406 C 572 409 583 410 589 410 C 599 410 600 402 600 391 C 600 374 595 367 547 364 C 512 362 504 358 504 345 L 504 249 C 504 233 496 232 482 232 C 468 232 460 233 460 249 L 460 345 C 460 358 452 362 417 364 C 369 367 364 374 364 391 M 427 848 C 427 856 453 859 459 859 C 475 859 486 858 486 844 C 469 843 449 841 433 838 C 429 842 427 844 427 848 M 438 674 C 438 682 484 704 494 704 C 504 704 550 680 550 674 C 550 666 506 644 494 644 C 482 644 438 668 438 674 M 513 844 C 513 858 524 859 540 859 C 546 859 572 855 572 847 C 572 843 570 841 566 837 C 550 840 530 843 513 844 M 556 172 C 659 272 690 360 690 509 L 695 510 C 701 473 704 446 704 425 C 704 328 662 240 573 156 L 556 172 M 616 687 C 616 695 627 705 654 724 L 657 722 C 655 705 655 682 655 666 C 637 671 616 679 616 687 "/>
</g>
</svg>
