<?xml version="1.0" encoding="UTF-8"?>
<!--
	(c) 2010 Alexey Kryukov
	
    This work is free; you can redistribute it and/or modify
    it under the terms of the GNU General Public License as published by
    the Free Software Foundation; either version 2 of the License, or
    (at your option) any later version.

    This work is distributed in the hope that it will be useful,
    but WITHOUT ANY WARRANTY; without even the implied warranty of
    MERCHANTABILITY or FITNESS FOR A PARTICULAR PURPOSE.  See the
    GNU General Public License for more details.

    You should have received a copy of the GNU General Public License
    along with this program; if not, write to the Free Software
    Foundation, Inc., 59 Temple Place, Suite 330, Boston, MA  02111-1307  USA
-->
<svg xmlns="http://www.w3.org/2000/svg" xmlns:xlink="http://www.w3.org/1999/xlink" width="1000pt" height="1000pt" viewBox="0 0 1000 1000" version="1.1">
<g id="surface0">
<path style="stroke-width:2;stroke-linecap:butt;stroke-linejoin:miter;stroke:white;stroke-opacity:1;stroke-miterlimit:10;fill-rule:nonzero;fill:white;fill-opacity:1;" d="M 278 844 C 278 779 306 716 362 672 C 397 645 413 615 413 590 C 413 578 404 571 392 562 C 379 552 350 528 350 486 C 350 456 363 428 384 408 C 403 390 420 365 420 348 C 420 338 414 335 407 335 L 367 335 C 357 335 357 331 357 327 C 357 323 361 317 364 314 L 445 228 C 448 225 452 221 452 215 C 452 209 448 204 442 199 C 433 191 426 175 426 156 C 426 121 452 86 500 86 C 548 86 574 121 574 156 C 574 175 567 191 558 199 C 552 204 548 209 548 215 C 548 221 552 225 555 228 L 636 314 C 639 317 643 323 643 327 C 643 331 643 335 633 335 L 593 335 C 586 335 580 338 580 348 C 580 365 597 390 616 408 C 637 428 650 456 650 486 C 650 528 621 552 608 562 C 596 571 587 578 587 590 C 587 615 603 645 638 672 C 694 716 722 779 722 844 C 722 852 722 857 720 866 L 280 866 C 278 857 278 852 278 844 "/>
<path style="stroke:none;fill-rule:nonzero;fill:black;fill-opacity:1;" d="M 278 844 C 278 779 306 716 362 672 C 397 645 413 615 413 590 C 413 578 404 571 392 562 C 379 552 350 528 350 486 C 350 456 363 428 384 408 C 403 390 420 365 420 348 C 420 338 414 335 407 335 L 367 335 C 357 335 357 331 357 327 C 357 323 361 317 364 314 L 445 228 C 448 225 452 221 452 215 C 452 209 448 204 442 199 C 433 191 426 175 426 156 C 426 121 452 86 500 86 C 548 86 574 121 574 156 C 574 175 567 191 558 199 C 552 204 548 209 548 215 C 548 221 552 225 555 228 L 636 314 C 639 317 643 323 643 327 C 643 331 643 335 633 335 L 593 335 C 586 335 580 338 580 348 C 580 365 597 390 616 408 C 637 428 650 456 650 486 C 650 528 621 552 608 562 C 596 571 587 578 587 590 C 587 615 603 645 638 672 C 694 716 722 779 722 844 C 722 852 722 857 720 866 L 280 866 C 278 857 278 852 278 844 "/>
</g>
</svg>
