<?xml version="1.0" encoding="UTF-8"?>
<!--
	(c) 2010 Alexey Kryukov

    This work is free; you can redistribute it and/or modify
    it under the terms of the GNU General Public License as published by
    the Free Software Foundation; either version 2 of the License, or
    (at your option) any later version.

    This work is distributed in the hope that it will be useful,
    but WITHOUT ANY WARRANTY; without even the implied warranty of
    MERCHANTABILITY or FITNESS FOR A PARTICULAR PURPOSE.  See the
    GNU General Public License for more details.

    You should have received a copy of the GNU General Public License
    along with this program; if not, write to the Free Software
    Foundation, Inc., 51 Franklin Street, Fifth Floor, Boston, MA 02110-1301 USA
-->
<svg xmlns="http://www.w3.org/2000/svg" xmlns:xlink="http://www.w3.org/1999/xlink" width="1000pt" height="1000pt" viewBox="0 0 1000 1000" version="1.1">
<g id="surface0">
<path style="stroke-width:2;stroke-linecap:butt;stroke-linejoin:miter;stroke:white;stroke-opacity:1;stroke-miterlimit:10;fill-rule:nonzero;fill:white;fill-opacity:1;" d="M 96 408 C 96 321 164 248 250 248 C 318 248 370 276 414 324 L 418 322 L 418 122 C 418 100 422 96 444 96 L 556 96 C 578 96 582 100 582 122 L 582 322 L 586 324 C 630 276 682 248 750 248 C 836 248 904 321 904 408 C 904 495 852 549 798 604 C 769 633 748 656 748 672 C 748 679 749 686 754 691 C 762 699 770 709 770 727 C 770 752 752 768 742 775 L 734 852 C 662 870 568 874 500 874 C 432 874 338 870 266 852 L 258 775 C 248 768 230 752 230 727 C 230 709 238 699 246 691 C 251 686 252 679 252 672 C 252 656 231 633 202 604 C 148 549 96 495 96 408 "/>
<path style="stroke:none;fill-rule:nonzero;fill:black;fill-opacity:1;" d="M 96 408 C 96 321 164 248 250 248 C 318 248 370 276 414 324 L 418 322 L 418 122 C 418 100 422 96 444 96 L 556 96 C 578 96 582 100 582 122 L 582 322 L 586 324 C 630 276 682 248 750 248 C 836 248 904 321 904 408 C 904 495 852 549 798 604 C 769 633 748 656 748 672 C 748 679 749 686 754 691 C 762 699 770 709 770 727 C 770 752 752 768 742 775 L 734 852 C 662 870 568 874 500 874 C 432 874 338 870 266 852 L 258 775 C 248 768 230 752 230 727 C 230 709 238 699 246 691 C 251 686 252 679 252 672 C 252 656 231 633 202 604 C 148 549 96 495 96 408 M 165 411 C 165 490 188 533 259 645 C 266 656 266 666 266 677 C 328 667 416 659 479 659 C 479 473 424 299 268 299 C 207 299 165 351 165 411 M 206 446 C 206 397 238 347 288 347 C 405 347 446 514 446 628 C 398 628 344 634 287 643 C 276 617 265 596 251 576 C 225 540 206 492 206 446 M 252 535 C 262 576 288 589 305 589 C 316 589 319 584 319 576 C 319 558 294 535 252 535 M 257 748 C 257 756 264 762 266 762 C 307 743 380 730 500 730 C 620 730 693 743 734 762 C 736 762 743 756 743 748 C 743 731 709 722 693 719 C 624 705 576 703 500 703 C 424 703 376 705 307 719 C 291 722 257 731 257 748 M 276 770 L 280 810 C 305 802 322 794 322 778 C 322 770 308 768 291 768 C 286 768 281 769 276 770 M 281 825 L 284 848 C 372 826 432 824 500 824 C 568 824 628 826 716 848 L 719 825 C 637 804 581 800 500 800 C 419 800 363 804 281 825 M 310 518 C 310 547 330 571 341 571 C 355 571 358 548 358 528 C 358 508 342 479 320 468 C 313 485 310 498 310 518 M 331 605 C 331 613 339 615 345 615 C 357 615 370 608 370 598 C 370 592 363 589 356 589 C 344 589 331 597 331 605 M 366 555 C 366 567 373 572 381 572 C 400 572 413 542 413 505 C 386 505 366 534 366 555 M 428 765 C 428 777 472 784 500 784 C 528 784 572 777 572 765 C 572 753 528 746 500 746 C 472 746 428 753 428 765 M 430 320 C 430 358 462 390 500 390 C 538 390 570 358 570 320 C 570 282 538 250 500 250 C 462 250 430 282 430 320 M 432 226 L 453 226 L 480 187 L 474 181 L 432 206 L 432 226 M 432 130 L 474 155 L 480 149 L 453 110 L 432 110 L 432 130 M 446 320 C 446 290 470 266 500 266 C 530 266 554 290 554 320 C 554 350 530 374 500 374 C 470 374 446 350 446 320 M 482 168 C 482 178 490 186 500 186 C 510 186 518 178 518 168 C 518 158 510 150 500 150 C 490 150 482 158 482 168 M 520 187 L 547 226 L 568 226 L 568 206 L 526 181 L 520 187 M 520 149 L 526 155 L 568 130 L 568 110 L 547 110 L 520 149 M 521 659 C 584 659 672 667 734 677 C 734 666 734 656 741 645 C 812 533 835 490 835 411 C 835 351 793 299 732 299 C 576 299 521 473 521 659 M 554 628 C 554 514 595 347 712 347 C 762 347 794 397 794 446 C 794 492 775 540 749 576 C 735 596 724 617 713 643 C 656 634 602 628 554 628 M 587 505 C 587 542 600 572 619 572 C 627 572 634 567 634 555 C 634 534 614 505 587 505 M 630 598 C 630 608 643 615 655 615 C 661 615 669 613 669 605 C 669 597 656 589 644 589 C 637 589 630 592 630 598 M 642 528 C 642 548 645 571 659 571 C 670 571 690 547 690 518 C 690 498 687 485 680 468 C 658 479 642 508 642 528 M 678 778 C 678 794 695 802 720 810 L 724 770 C 719 769 714 768 709 768 C 692 768 678 770 678 778 M 681 576 C 681 584 684 589 695 589 C 712 589 738 576 748 535 C 706 535 681 558 681 576 "/>
</g>
</svg>
