<?xml version="1.0" encoding="UTF-8"?>
<!--
	(c) 2010 Alexey Kryukov
	
    This work is free; you can redistribute it and/or modify
    it under the terms of the GNU General Public License as published by
    the Free Software Foundation; either version 2 of the License, or
    (at your option) any later version.

    This work is distributed in the hope that it will be useful,
    but WITHOUT ANY WARRANTY; without even the implied warranty of
    MERCHANTABILITY or FITNESS FOR A PARTICULAR PURPOSE.  See the
    GNU General Public License for more details.

    You should have received a copy of the GNU General Public License
    along with this program; if not, write to the Free Software
    Foundation, Inc., 59 Temple Place, Suite 330, Boston, MA  02111-1307  USA
-->
<svg xmlns="http://www.w3.org/2000/svg" xmlns:xlink="http://www.w3.org/1999/xlink" width="1000pt" height="1000pt" viewBox="0 0 1000 1000" version="1.1">
<g id="surface0">
<path style="stroke-width:2;stroke-linecap:butt;stroke-linejoin:miter;stroke:white;stroke-opacity:1;stroke-miterlimit:10;fill-rule:nonzero;fill:white;fill-opacity:1;" d="M 84 619 C 84 561 100 540 118 518 C 139 492 161 460 178 426 C 194 394 211 364 232 336 C 242 280 256 241 276 206 L 270 159 C 269 150 268 136 268 126 C 268 118 270 100 283 100 C 301 100 335 150 348 174 L 372 174 C 377 140 387 96 402 96 C 416 96 425 115 432 132 C 440 152 446 161 462 175 C 475 186 481 191 492 191 C 499 191 505 191 511 190 C 517 189 524 188 532 188 C 552 188 582 192 582 199 L 582 218 C 629 223 675 233 675 241 C 675 246 658 252 646 256 L 646 259 C 674 264 746 288 746 301 C 746 309 724 312 707 314 L 706 316 C 736 328 800 385 800 401 C 800 409 778 411 763 411 L 762 414 C 790 434 844 494 844 510 C 844 513 843 514 840 514 C 836 514 829 513 823 512 C 816 510 808 509 803 509 L 801 512 C 826 536 874 588 874 608 C 874 610 873 612 869 612 C 865 612 858 610 850 607 C 843 604 835 601 830 601 L 829 603 C 851 626 882 681 882 700 C 882 703 880 705 877 705 C 874 705 868 704 861 700 C 856 697 849 694 845 693 L 844 695 C 870 732 894 775 894 791 C 894 793 893 795 889 795 C 885 795 878 793 870 790 C 865 788 857 786 853 785 L 852 787 C 868 808 883 839 884 866 L 286 866 C 286 792 320 743 372 684 C 417 633 435 605 448 536 L 442 532 C 416 549 390 554 370 554 C 354 576 346 582 320 600 C 295 617 279 636 268 666 C 256 699 237 730 205 730 C 176 730 165 722 155 709 C 119 696 84 674 84 619 "/>
<path style="stroke:none;fill-rule:nonzero;fill:black;fill-opacity:1;" d="M 84 619 C 84 561 100 540 118 518 C 139 492 161 460 178 426 C 194 394 211 364 232 336 C 242 280 256 241 276 206 L 270 159 C 269 150 268 136 268 126 C 268 118 270 100 283 100 C 301 100 335 150 348 174 L 372 174 C 377 140 387 96 402 96 C 416 96 425 115 432 132 C 440 152 446 161 462 175 C 475 186 481 191 492 191 C 499 191 505 191 511 190 C 517 189 524 188 532 188 C 552 188 582 192 582 199 L 582 218 C 629 223 675 233 675 241 C 675 246 658 252 646 256 L 646 259 C 674 264 746 288 746 301 C 746 309 724 312 707 314 L 706 316 C 736 328 800 385 800 401 C 800 409 778 411 763 411 L 762 414 C 790 434 844 494 844 510 C 844 513 843 514 840 514 C 836 514 829 513 823 512 C 816 510 808 509 803 509 L 801 512 C 826 536 874 588 874 608 C 874 610 873 612 869 612 C 865 612 858 610 850 607 C 843 604 835 601 830 601 L 829 603 C 851 626 882 681 882 700 C 882 703 880 705 877 705 C 874 705 868 704 861 700 C 856 697 849 694 845 693 L 844 695 C 870 732 894 775 894 791 C 894 793 893 795 889 795 C 885 795 878 793 870 790 C 865 788 857 786 853 785 L 852 787 C 868 808 883 839 884 866 L 286 866 C 286 792 320 743 372 684 C 417 633 435 605 448 536 L 442 532 C 416 549 390 554 370 554 C 354 576 346 582 320 600 C 295 617 279 636 268 666 C 256 699 237 730 205 730 C 176 730 165 722 155 709 C 119 696 84 674 84 619 M 109 592 C 109 607 119 616 133 616 C 144 616 154 612 154 602 C 154 596 148 591 142 588 C 136 585 134 578 134 571 C 134 565 131 560 127 560 C 116 560 109 577 109 592 M 171 636 C 171 650 183 662 194 662 C 200 662 202 658 203 652 C 204 647 206 644 208 641 C 212 636 214 631 214 626 C 214 615 205 606 192 606 C 178 606 171 622 171 636 M 248 401 C 248 405 251 408 255 408 C 262 408 264 404 265 400 C 270 383 280 358 301 346 C 315 338 325 336 337 336 C 342 336 351 337 354 339 C 357 341 360 342 364 342 C 373 342 373 336 373 332 C 373 322 358 318 346 318 C 327 318 306 323 292 332 C 268 347 248 380 248 401 M 276 233 C 276 237 279 238 281 238 C 287 238 290 233 293 228 C 296 222 301 216 308 216 C 313 216 313 222 313 228 C 313 234 313 240 318 240 C 323 240 327 236 330 226 C 334 214 345 206 350 206 C 353 206 354 207 354 210 C 354 214 354 217 353 221 C 352 224 352 228 352 230 C 352 233 352 236 356 236 C 360 236 363 230 365 219 C 366 210 370 198 377 188 C 361 188 341 187 329 183 C 305 195 276 215 276 233 M 292 376 C 292 385 307 387 318 387 C 332 387 344 382 344 369 C 344 361 339 354 329 351 C 310 352 292 366 292 376 M 468 234 C 784 284 806 677 806 866 L 838 866 C 838 654 797 258 474 212 L 468 234 M 476 477 C 476 480 479 482 483 482 C 496 482 529 419 529 378 C 529 351 524 298 505 298 C 498 298 494 304 494 312 C 494 322 498 333 502 343 C 509 360 510 375 510 388 C 510 419 494 451 482 465 C 479 469 476 473 476 477 M 479 530 C 479 535 484 536 493 536 C 520 536 555 521 573 505 C 599 482 612 452 612 437 C 612 429 610 423 605 423 C 598 423 594 434 589 448 C 581 470 570 484 562 492 C 539 513 522 519 490 523 C 483 524 479 525 479 530 M 480 504 C 480 508 482 509 486 509 C 494 509 528 484 546 458 C 561 436 572 413 572 396 C 572 390 570 385 563 385 C 553 385 550 396 548 408 C 541 444 519 473 497 487 C 491 490 480 498 480 504 "/>
</g>
</svg>
