<?xml version="1.0" encoding="UTF-8"?>
<!--
	(c) 2010 Alexey Kryukov
	
    This work is free; you can redistribute it and/or modify
    it under the terms of the GNU General Public License as published by
    the Free Software Foundation; either version 2 of the License, or
    (at your option) any later version.

    This work is distributed in the hope that it will be useful,
    but WITHOUT ANY WARRANTY; without even the implied warranty of
    MERCHANTABILITY or FITNESS FOR A PARTICULAR PURPOSE.  See the
    GNU General Public License for more details.

    You should have received a copy of the GNU General Public License
    along with this program; if not, write to the Free Software
    Foundation, Inc., 59 Temple Place, Suite 330, Boston, MA  02111-1307  USA
-->
<svg xmlns="http://www.w3.org/2000/svg" xmlns:xlink="http://www.w3.org/1999/xlink" width="1000pt" height="1000pt" viewBox="0 0 1000 1000" version="1.1">
<g id="surface0">
<path style="stroke-width:2;stroke-linecap:butt;stroke-linejoin:miter;stroke:white;stroke-opacity:1;stroke-miterlimit:10;fill-rule:nonzero;fill:white;fill-opacity:1;" d="M 54 339 C 54 316 70 300 93 300 C 116 300 132 316 132 339 C 132 344 131 352 129 356 C 127 361 126 365 126 369 C 126 375 129 382 135 389 L 225 506 C 237 522 249 538 264 538 C 281 538 287 520 287 503 L 287 311 C 287 300 285 285 270 278 C 259 273 252 258 252 247 C 252 227 266 206 289 206 C 312 206 330 221 330 245 C 330 256 326 267 319 273 C 312 279 307 285 307 294 C 307 304 310 312 315 323 L 387 488 C 393 501 400 512 414 512 C 425 512 434 508 437 492 L 487 250 C 489 241 491 229 491 221 C 491 212 491 205 480 199 C 468 192 452 182 452 156 C 452 130 474 108 500 108 C 526 108 548 130 548 156 C 548 182 532 192 520 199 C 509 205 509 212 509 221 C 509 229 511 241 513 250 L 563 492 C 566 508 575 512 586 512 C 600 512 607 501 613 488 L 685 323 C 690 312 693 304 693 294 C 693 285 688 279 681 273 C 674 267 670 256 670 245 C 670 221 688 206 711 206 C 734 206 748 227 748 247 C 748 258 741 273 730 278 C 715 285 713 300 713 311 L 713 503 C 713 520 719 538 736 538 C 751 538 763 522 775 506 L 865 389 C 871 382 874 375 874 369 C 874 365 873 361 871 356 C 869 352 868 344 868 339 C 868 316 884 300 907 300 C 930 300 946 316 946 339 C 946 362 928 376 915 378 C 906 379 897 381 893 390 L 819 572 C 799 622 790 681 790 711 C 790 737 793 753 797 771 L 810 834 C 714 873 596 892 500 892 C 404 892 286 873 190 834 L 203 771 C 207 753 210 737 210 711 C 210 681 201 622 181 572 L 107 390 C 103 381 94 379 85 378 C 72 376 54 362 54 339 "/>
<path style="stroke:none;fill-rule:nonzero;fill:black;fill-opacity:1;" d="M 54 339 C 54 316 70 300 93 300 C 116 300 132 316 132 339 C 132 344 131 352 129 356 C 127 361 126 365 126 369 C 126 375 129 382 135 389 L 225 506 C 237 522 249 538 264 538 C 281 538 287 520 287 503 L 287 311 C 287 300 285 285 270 278 C 259 273 252 258 252 247 C 252 227 266 206 289 206 C 312 206 330 221 330 245 C 330 256 326 267 319 273 C 312 279 307 285 307 294 C 307 304 310 312 315 323 L 387 488 C 393 501 400 512 414 512 C 425 512 434 508 437 492 L 487 250 C 489 241 491 229 491 221 C 491 212 491 205 480 199 C 468 192 452 182 452 156 C 452 130 474 108 500 108 C 526 108 548 130 548 156 C 548 182 532 192 520 199 C 509 205 509 212 509 221 C 509 229 511 241 513 250 L 563 492 C 566 508 575 512 586 512 C 600 512 607 501 613 488 L 685 323 C 690 312 693 304 693 294 C 693 285 688 279 681 273 C 674 267 670 256 670 245 C 670 221 688 206 711 206 C 734 206 748 227 748 247 C 748 258 741 273 730 278 C 715 285 713 300 713 311 L 713 503 C 713 520 719 538 736 538 C 751 538 763 522 775 506 L 865 389 C 871 382 874 375 874 369 C 874 365 873 361 871 356 C 869 352 868 344 868 339 C 868 316 884 300 907 300 C 930 300 946 316 946 339 C 946 362 928 376 915 378 C 906 379 897 381 893 390 L 819 572 C 799 622 790 681 790 711 C 790 737 793 753 797 771 L 810 834 C 714 873 596 892 500 892 C 404 892 286 873 190 834 L 203 771 C 207 753 210 737 210 711 C 210 681 201 622 181 572 L 107 390 C 103 381 94 379 85 378 C 72 376 54 362 54 339 M 70 339 C 70 352 80 362 93 362 C 106 362 116 352 116 339 C 116 326 106 316 93 316 C 80 316 70 326 70 339 M 139 425 L 178 520 C 192 528 209 535 224 538 L 226 534 L 141 424 L 139 425 M 186 540 C 198 562 209 590 213 613 C 303 597 390 588 500 588 C 610 588 697 597 787 613 C 791 590 802 562 814 540 C 780 554 766 558 740 558 C 704 558 682 535 666 500 C 642 523 622 532 586 532 C 550 532 520 508 500 482 C 480 508 450 532 414 532 C 378 532 358 523 334 500 C 318 535 296 558 260 558 C 234 558 220 554 186 540 M 210 817 C 221 821 233 825 245 829 C 326 792 394 784 500 784 C 606 784 674 792 755 829 C 767 825 779 821 790 817 C 734 779 664 756 500 756 C 336 756 266 779 210 817 M 219 658 C 219 674 223 680 232 689 C 325 673 396 662 500 662 C 604 662 675 673 768 689 C 777 680 781 674 781 658 C 781 649 779 644 773 636 C 661 617 596 612 500 612 C 404 612 339 617 227 636 C 221 644 219 649 219 658 M 227 776 L 229 778 C 284 761 352 730 352 718 C 352 706 282 702 233 702 C 233 730 233 751 227 776 M 268 245 C 268 258 278 268 291 268 C 304 268 314 258 314 245 C 314 232 304 222 291 222 C 278 222 268 232 268 245 M 275 837 C 340 855 417 868 500 868 C 583 868 660 855 725 837 C 648 809 594 804 500 804 C 406 804 352 809 275 837 M 304 505 C 317 494 323 476 326 460 C 335 471 356 489 368 489 L 306 348 L 304 349 L 304 505 M 426 710 C 426 722 480 738 500 738 C 520 738 574 722 574 710 C 574 698 520 680 500 680 C 480 680 426 698 426 710 M 456 490 C 472 482 490 461 500 445 C 510 461 528 482 544 490 L 501 280 L 499 280 L 456 490 M 468 156 C 468 174 482 188 500 188 C 518 188 532 174 532 156 C 532 138 518 124 500 124 C 482 124 468 138 468 156 M 632 489 C 644 489 665 471 674 460 C 677 476 683 494 696 505 L 696 349 L 694 348 L 632 489 M 648 718 C 648 730 716 761 771 778 L 773 776 C 767 751 767 730 767 702 C 718 702 648 706 648 718 M 686 245 C 686 258 696 268 709 268 C 722 268 732 258 732 245 C 732 232 722 222 709 222 C 696 222 686 232 686 245 M 774 534 L 776 538 C 791 535 808 528 822 520 L 861 425 L 859 424 L 774 534 M 884 339 C 884 352 894 362 907 362 C 920 362 930 352 930 339 C 930 326 920 316 907 316 C 894 316 884 326 884 339 "/>
</g>
</svg>
