<?xml version="1.0" encoding="UTF-8"?>
<!--
	(c) 2010 Alexey Kryukov
	
    This work is free; you can redistribute it and/or modify
    it under the terms of the GNU General Public License as published by
    the Free Software Foundation; either version 2 of the License, or
    (at your option) any later version.

    This work is distributed in the hope that it will be useful,
    but WITHOUT ANY WARRANTY; without even the implied warranty of
    MERCHANTABILITY or FITNESS FOR A PARTICULAR PURPOSE.  See the
    GNU General Public License for more details.

    You should have received a copy of the GNU General Public License
    along with this program; if not, write to the Free Software
    Foundation, Inc., 59 Temple Place, Suite 330, Boston, MA  02111-1307  USA
-->
<svg xmlns="http://www.w3.org/2000/svg" xmlns:xlink="http://www.w3.org/1999/xlink" width="1000pt" height="1000pt" viewBox="0 0 1000 1000" version="1.1">
<g id="surface0">
<path style="stroke-width:2;stroke-linecap:butt;stroke-linejoin:miter;stroke:white;stroke-opacity:1;stroke-miterlimit:10;fill-rule:nonzero;fill:white;fill-opacity:1;" d="M 192 903 C 192 881 200 863 209 852 L 209 754 L 284 654 L 284 287 L 226 216 L 226 76 C 260 71 305 67 333 67 L 340 126 L 425 126 L 425 63 C 449 61 476 60 500 60 C 524 60 550 61 574 63 L 574 126 L 660 126 L 667 66 C 695 66 740 71 774 76 L 774 216 L 716 287 L 716 654 L 791 754 L 791 852 C 800 863 808 881 808 903 C 808 913 807 923 804 934 L 196 934 C 193 923 192 913 192 903 "/>
<path style="stroke:none;fill-rule:nonzero;fill:black;fill-opacity:1;" d="M 192 903 C 192 881 200 863 209 852 L 209 754 L 284 654 L 284 287 L 226 216 L 226 76 C 260 71 305 67 333 67 L 340 126 L 425 126 L 425 63 C 449 61 476 60 500 60 C 524 60 550 61 574 63 L 574 126 L 660 126 L 667 66 C 695 66 740 71 774 76 L 774 216 L 716 287 L 716 654 L 791 754 L 791 852 C 800 863 808 881 808 903 C 808 913 807 923 804 934 L 196 934 C 193 923 192 913 192 903 M 227 896 C 227 904 227 908 229 914 L 771 914 C 773 908 773 904 773 896 C 773 888 769 880 766 876 L 234 876 C 231 880 227 888 227 896 M 238 802 C 238 818 240 833 246 852 L 754 852 C 760 833 762 818 762 802 C 762 781 761 770 751 750 L 249 750 C 239 770 238 781 238 802 M 250 201 C 336 195 428 190 500 190 C 572 190 664 195 750 201 L 750 97 C 734 94 708 92 688 92 L 680 150 L 550 150 L 550 86 C 534 85 518 84 500 84 C 482 84 466 85 450 86 L 450 150 L 320 150 L 312 92 C 292 92 266 94 250 97 L 250 201 M 263 726 L 737 726 L 697 674 L 303 674 L 263 726 M 266 224 L 306 272 C 362 268 436 264 500 264 C 564 264 638 268 694 272 L 734 224 C 648 218 572 214 500 214 C 428 214 352 218 266 224 M 308 650 L 356 650 L 356 586 C 340 586 324 587 308 588 L 308 650 M 308 564 C 344 562 382 560 420 560 L 420 478 C 380 480 341 482 308 484 L 308 564 M 308 460 C 323 459 339 458 356 457 L 356 372 C 339 373 323 374 308 376 L 308 460 M 308 352 C 341 348 380 346 420 344 L 420 290 C 380 292 341 294 308 296 L 308 352 M 380 650 L 488 650 L 488 584 C 452 584 416 584 380 585 L 380 650 M 380 456 C 415 454 453 452 488 452 L 488 366 C 453 366 415 368 380 370 L 380 456 M 444 560 L 556 560 L 556 477 C 537 476 518 476 500 476 C 482 476 463 476 444 477 L 444 560 M 444 343 C 463 342 482 342 500 342 C 518 342 537 342 556 343 L 556 289 C 537 288 518 288 500 288 C 482 288 463 288 444 289 L 444 343 M 512 650 L 620 650 L 620 585 C 584 584 548 584 512 584 L 512 650 M 512 452 C 547 452 585 454 620 456 L 620 370 C 585 368 547 366 512 366 L 512 452 M 580 560 C 618 560 656 562 692 564 L 692 484 C 659 482 620 480 580 478 L 580 560 M 580 344 C 620 346 659 348 692 352 L 692 296 C 659 294 620 292 580 290 L 580 344 M 644 650 L 692 650 L 692 588 C 676 587 660 586 644 586 L 644 650 M 644 457 C 661 458 677 459 692 460 L 692 376 C 677 374 661 373 644 372 L 644 457 "/>
</g>
</svg>
