<?xml version="1.0" encoding="UTF-8"?>
<!--
	(c) 2010 Alexey Kryukov
	
    This work is free; you can redistribute it and/or modify
    it under the terms of the GNU General Public License as published by
    the Free Software Foundation; either version 2 of the License, or
    (at your option) any later version.

    This work is distributed in the hope that it will be useful,
    but WITHOUT ANY WARRANTY; without even the implied warranty of
    MERCHANTABILITY or FITNESS FOR A PARTICULAR PURPOSE.  See the
    GNU General Public License for more details.

    You should have received a copy of the GNU General Public License
    along with this program; if not, write to the Free Software
    Foundation, Inc., 59 Temple Place, Suite 330, Boston, MA  02111-1307  USA
-->
<svg xmlns="http://www.w3.org/2000/svg" xmlns:xlink="http://www.w3.org/1999/xlink" width="1000pt" height="1000pt" viewBox="0 0 1000 1000" version="1.1">
<g id="surface0">
<path style="stroke-width:2;stroke-linecap:butt;stroke-linejoin:miter;stroke:white;stroke-opacity:1;stroke-miterlimit:10;fill-rule:nonzero;fill:white;fill-opacity:1;" d="M 84 619 C 84 561 100 540 118 518 C 139 492 161 460 178 426 C 194 394 211 364 232 336 C 242 280 256 241 276 206 L 270 159 C 269 150 268 136 268 126 C 268 118 270 100 283 100 C 301 100 335 150 348 174 L 372 174 C 377 140 387 96 402 96 C 416 96 425 115 432 132 C 440 152 446 161 462 175 C 475 186 481 191 492 191 C 499 191 505 191 511 190 C 517 189 524 188 532 188 C 552 188 582 192 582 199 L 582 218 C 629 223 675 233 675 241 C 675 246 658 252 646 256 L 646 259 C 674 264 746 288 746 301 C 746 309 724 312 707 314 L 706 316 C 736 328 800 385 800 401 C 800 409 778 411 763 411 L 762 414 C 790 434 844 494 844 510 C 844 513 843 514 840 514 C 836 514 829 513 823 512 C 816 510 808 509 803 509 L 801 512 C 826 536 874 588 874 608 C 874 610 873 612 869 612 C 865 612 858 610 850 607 C 843 604 835 601 830 601 L 829 603 C 851 626 882 681 882 700 C 882 703 880 705 877 705 C 874 705 868 704 861 700 C 856 697 849 694 845 693 L 844 695 C 870 732 894 775 894 791 C 894 793 893 795 889 795 C 885 795 878 793 870 790 C 865 788 857 786 853 785 L 852 787 C 868 808 883 839 884 866 L 286 866 C 286 792 320 743 372 684 C 417 633 435 605 448 536 L 442 532 C 416 549 390 554 370 554 C 354 576 346 582 320 600 C 295 617 279 636 268 666 C 256 699 237 730 205 730 C 176 730 165 722 155 709 C 119 696 84 674 84 619 "/>
<path style="stroke:none;fill-rule:nonzero;fill:black;fill-opacity:1;" d="M 84 619 C 84 561 100 540 118 518 C 139 492 161 460 178 426 C 194 394 211 364 232 336 C 242 280 256 241 276 206 L 270 159 C 269 150 268 136 268 126 C 268 118 270 100 283 100 C 301 100 335 150 348 174 L 372 174 C 377 140 387 96 402 96 C 416 96 425 115 432 132 C 440 152 446 161 462 175 C 475 186 481 191 492 191 C 499 191 505 191 511 190 C 517 189 524 188 532 188 C 552 188 582 192 582 199 L 582 218 C 629 223 675 233 675 241 C 675 246 658 252 646 256 L 646 259 C 674 264 746 288 746 301 C 746 309 724 312 707 314 L 706 316 C 736 328 800 385 800 401 C 800 409 778 411 763 411 L 762 414 C 790 434 844 494 844 510 C 844 513 843 514 840 514 C 836 514 829 513 823 512 C 816 510 808 509 803 509 L 801 512 C 826 536 874 588 874 608 C 874 610 873 612 869 612 C 865 612 858 610 850 607 C 843 604 835 601 830 601 L 829 603 C 851 626 882 681 882 700 C 882 703 880 705 877 705 C 874 705 868 704 861 700 C 856 697 849 694 845 693 L 844 695 C 870 732 894 775 894 791 C 894 793 893 795 889 795 C 885 795 878 793 870 790 C 865 788 857 786 853 785 L 852 787 C 868 808 883 839 884 866 L 286 866 C 286 792 320 743 372 684 C 417 633 435 605 448 536 L 442 532 C 416 549 390 554 370 554 C 354 576 346 582 320 600 C 295 617 279 636 268 666 C 256 699 237 730 205 730 C 176 730 165 722 155 709 C 119 696 84 674 84 619 M 107 601 C 107 661 120 685 156 685 C 161 685 168 684 168 676 C 168 675 168 672 167 669 C 166 666 165 663 165 660 C 165 649 178 621 193 621 C 201 621 204 629 204 633 C 204 642 198 652 191 662 C 185 671 181 687 181 693 C 181 703 189 708 196 708 C 209 708 218 704 226 692 C 232 682 233 674 234 665 C 235 652 244 641 261 629 C 272 621 285 610 291 602 C 302 588 310 581 330 571 C 348 562 348 547 348 536 C 348 534 347 530 346 527 C 344 523 343 519 343 515 C 343 511 345 507 349 507 C 358 507 363 516 365 524 C 368 536 374 542 384 542 C 416 542 435 520 454 492 C 475 462 480 438 480 402 C 480 374 483 335 500 335 C 512 335 514 352 514 361 C 514 390 504 428 490 460 L 496 464 C 510 454 514 445 518 424 C 520 413 525 396 536 396 C 544 396 550 402 550 408 C 550 434 518 474 494 500 L 502 508 C 512 494 523 480 532 480 C 541 480 544 485 544 491 C 544 503 526 516 510 525 C 494 534 482 538 464 538 C 459 573 455 596 441 622 C 426 650 400 682 373 714 C 330 765 316 794 310 842 L 824 842 C 802 474 706 269 482 219 C 472 220 461 223 448 228 L 430 165 C 427 156 423 145 413 145 C 407 145 406 155 405 165 L 402 223 C 402 229 396 231 387 232 C 382 233 370 238 367 247 C 354 247 347 248 344 256 C 342 261 337 269 327 269 C 317 269 310 264 310 256 C 310 237 317 230 334 214 L 328 208 C 307 216 278 245 270 278 C 258 327 254 340 238 362 C 222 384 210 404 202 421 C 191 445 168 487 150 507 C 128 532 107 556 107 601 M 122 576 C 122 567 124 565 130 559 C 136 553 143 542 148 530 C 154 516 161 506 165 506 C 171 506 174 509 174 515 C 174 526 158 551 138 569 L 138 571 C 164 571 168 593 168 609 C 168 629 156 643 142 643 C 138 643 135 639 135 635 C 135 631 139 627 142 624 C 147 619 148 612 148 607 C 148 596 143 589 131 586 C 126 585 122 582 122 576 M 254 413 C 254 367 298 328 337 328 C 375 328 386 335 386 347 C 386 353 383 357 376 357 C 373 357 368 356 365 353 C 363 351 359 348 354 348 C 349 348 346 350 342 353 C 347 360 348 371 348 375 C 348 394 343 410 318 410 C 302 410 292 394 289 378 L 287 378 C 277 383 272 398 271 405 C 269 415 266 420 262 420 C 259 420 254 419 254 413 M 296 148 L 303 188 L 318 181 L 300 146 L 296 148 M 300 377 C 300 385 307 389 314 389 C 323 389 328 383 328 372 C 328 366 325 358 316 358 C 303 358 300 368 300 377 "/>
</g>
</svg>
