<?xml version="1.0" encoding="UTF-8"?>
<!--
	(c) 2010 Alexey Kryukov
	
    This work is free; you can redistribute it and/or modify
    it under the terms of the GNU General Public License as published by
    the Free Software Foundation; either version 2 of the License, or
    (at your option) any later version.

    This work is distributed in the hope that it will be useful,
    but WITHOUT ANY WARRANTY; without even the implied warranty of
    MERCHANTABILITY or FITNESS FOR A PARTICULAR PURPOSE.  See the
    GNU General Public License for more details.

    You should have received a copy of the GNU General Public License
    along with this program; if not, write to the Free Software
    Foundation, Inc., 59 Temple Place, Suite 330, Boston, MA  02111-1307  USA
-->
<svg xmlns="http://www.w3.org/2000/svg" xmlns:xlink="http://www.w3.org/1999/xlink" width="1000pt" height="1000pt" viewBox="0 0 1000 1000" version="1.1">
<g id="surface0">
<path style="stroke-width:2;stroke-linecap:butt;stroke-linejoin:miter;stroke:white;stroke-opacity:1;stroke-miterlimit:10;fill-rule:nonzero;fill:white;fill-opacity:1;" d="M 278 844 C 278 779 306 716 362 672 C 397 645 413 615 413 590 C 413 578 404 571 392 562 C 379 552 350 528 350 486 C 350 456 363 428 384 408 C 403 390 420 365 420 348 C 420 338 414 335 407 335 L 367 335 C 357 335 357 331 357 327 C 357 323 361 317 364 314 L 445 228 C 448 225 452 221 452 215 C 452 209 448 204 442 199 C 433 191 426 175 426 156 C 426 121 452 86 500 86 C 548 86 574 121 574 156 C 574 175 567 191 558 199 C 552 204 548 209 548 215 C 548 221 552 225 555 228 L 636 314 C 639 317 643 323 643 327 C 643 331 643 335 633 335 L 593 335 C 586 335 580 338 580 348 C 580 365 597 390 616 408 C 637 428 650 456 650 486 C 650 528 621 552 608 562 C 596 571 587 578 587 590 C 587 615 603 645 638 672 C 694 716 722 779 722 844 C 722 852 722 857 720 866 L 280 866 C 278 857 278 852 278 844 "/>
<path style="stroke:none;fill-rule:nonzero;fill:black;fill-opacity:1;" d="M 278 844 C 278 779 306 716 362 672 C 397 645 413 615 413 590 C 413 578 404 571 392 562 C 379 552 350 528 350 486 C 350 456 363 428 384 408 C 403 390 420 365 420 348 C 420 338 414 335 407 335 L 367 335 C 357 335 357 331 357 327 C 357 323 361 317 364 314 L 445 228 C 448 225 452 221 452 215 C 452 209 448 204 442 199 C 433 191 426 175 426 156 C 426 121 452 86 500 86 C 548 86 574 121 574 156 C 574 175 567 191 558 199 C 552 204 548 209 548 215 C 548 221 552 225 555 228 L 636 314 C 639 317 643 323 643 327 C 643 331 643 335 633 335 L 593 335 C 586 335 580 338 580 348 C 580 365 597 390 616 408 C 637 428 650 456 650 486 C 650 528 621 552 608 562 C 596 571 587 578 587 590 C 587 615 603 645 638 672 C 694 716 722 779 722 844 C 722 852 722 857 720 866 L 280 866 C 278 857 278 852 278 844 M 314 793 C 314 809 321 830 337 830 L 663 830 C 679 830 686 809 686 793 C 686 750 666 721 635 696 C 596 664 573 638 563 588 L 437 588 C 427 638 404 664 365 696 C 334 721 314 750 314 793 M 374 486 C 374 529 413 564 458 564 L 542 564 C 587 564 626 529 626 486 C 626 458 618 439 590 412 C 571 393 560 369 553 338 L 447 338 C 440 369 429 393 410 412 C 382 439 374 458 374 486 M 416 301 C 416 311 429 314 439 314 L 561 314 C 571 314 584 311 584 301 C 584 296 580 290 575 284 L 521 225 C 513 226 508 226 500 226 C 492 226 487 226 479 225 L 425 284 C 420 290 416 296 416 301 M 450 156 C 450 184 472 206 500 206 C 528 206 550 184 550 156 C 550 128 528 106 500 106 C 472 106 450 128 450 156 "/>
</g>
</svg>
