<?xml version="1.0" encoding="UTF-8"?>
<!--
	(c) 2010 Alexey Kryukov
	
    This work is free; you can redistribute it and/or modify
    it under the terms of the GNU General Public License as published by
    the Free Software Foundation; either version 2 of the License, or
    (at your option) any later version.

    This work is distributed in the hope that it will be useful,
    but WITHOUT ANY WARRANTY; without even the implied warranty of
    MERCHANTABILITY or FITNESS FOR A PARTICULAR PURPOSE.  See the
    GNU General Public License for more details.

    You should have received a copy of the GNU General Public License
    along with this program; if not, write to the Free Software
    Foundation, Inc., 59 Temple Place, Suite 330, Boston, MA  02111-1307  USA
-->
<svg xmlns="http://www.w3.org/2000/svg" xmlns:xlink="http://www.w3.org/1999/xlink" width="1000pt" height="1000pt" viewBox="0 0 1000 1000" version="1.1">
<g id="surface0">
<path style="stroke-width:2;stroke-linecap:butt;stroke-linejoin:miter;stroke:white;stroke-opacity:1;stroke-miterlimit:10;fill-rule:nonzero;fill:white;fill-opacity:1;" d="M 62 910 C 100 868 154 820 220 820 C 252 820 291 828 312 836 C 334 844 370 854 387 854 C 404 854 412 851 420 842 L 420 838 C 383 828 349 814 314 786 C 326 751 334 722 334 681 C 334 658 324 634 306 600 C 288 566 270 505 270 454 C 270 282 423 158 467 124 C 451 110 449 94 449 87 C 449 68 460 52 485 52 C 508 52 518 69 518 83 C 518 100 510 113 498 122 C 513 134 532 150 545 162 C 558 150 566 140 576 127 C 565 118 552 105 552 87 C 552 68 565 52 585 52 C 607 52 618 68 618 82 C 618 100 607 113 598 123 C 650 174 734 269 734 401 C 734 465 717 520 695 576 C 682 610 670 645 670 681 C 670 718 676 749 686 786 C 660 810 632 825 578 837 L 578 840 C 588 850 601 854 616 854 C 646 854 663 850 688 840 C 722 826 754 820 780 820 C 854 820 912 871 936 900 L 930 909 C 914 898 897 890 872 886 L 870 889 C 887 903 899 926 906 940 L 897 948 C 868 916 840 886 774 886 C 744 886 713 894 681 903 C 652 911 633 916 600 916 C 553 916 523 889 500 854 L 496 854 C 477 886 450 916 412 916 C 380 916 356 912 328 903 C 307 896 271 884 238 884 C 178 884 150 908 110 948 L 103 942 C 112 922 118 911 133 893 L 130 890 C 113 895 93 902 71 919 L 62,910"/>
<path style="stroke:none;fill-rule:nonzero;fill:black;fill-opacity:1;" d="M 62 910 C 100 868 154 820 220 820 C 252 820 291 828 312 836 C 334 844 370 854 387 854 C 404 854 412 851 420 842 L 420 838 C 383 828 349 814 314 786 C 326 751 334 722 334 681 C 334 658 324 634 306 600 C 288 566 270 505 270 454 C 270 282 423 158 467 124 C 451 110 449 94 449 87 C 449 68 460 52 485 52 C 508 52 518 69 518 83 C 518 100 510 113 498 122 C 513 134 532 150 545 162 C 558 150 566 140 576 127 C 565 118 552 105 552 87 C 552 68 565 52 585 52 C 607 52 618 68 618 82 C 618 100 607 113 598 123 C 650 174 734 269 734 401 C 734 465 717 520 695 576 C 682 610 670 645 670 681 C 670 718 676 749 686 786 C 660 810 632 825 578 837 L 578 840 C 588 850 601 854 616 854 C 646 854 663 850 688 840 C 722 826 754 820 780 820 C 854 820 912 871 936 900 L 930 909 C 914 898 897 890 872 886 L 870 889 C 887 903 899 926 906 940 L 897 948 C 868 916 840 886 774 886 C 744 886 713 894 681 903 C 652 911 633 916 600 916 C 553 916 523 889 500 854 L 496 854 C 477 886 450 916 412 916 C 380 916 356 912 328 903 C 307 896 271 884 238 884 C 178 884 150 908 110 948 L 103 942 C 112 922 118 911 133 893 L 130 890 C 113 895 93 902 71 919 L 62,910 M 119 875 L 121 879 C 132 874 144 872 156 872 L 158 876 C 152 882 143 892 139 899 L 143 902 C 176 878 206 870 236 870 C 270 870 301 878 326 886 C 351 894 380 902 412 902 C 444 902 464 878 482 847 C 466 847 452 845 438 843 C 426 859 418 868 390 868 C 366 868 334 858 306 849 C 280 840 242 834 220 834 C 177 834 147 853 119 875 M 294 458 C 294 527 315 576 340 625 C 394 603 455 596 500 596 C 565 596 600 605 659 621 C 666 589 670 536 670 507 C 670 342 620 243 482 136 C 376 229 294 310 294 458 M 338 781 C 374 809 434 828 500 828 C 566 828 626 809 662 781 C 618 757 562 739 500 739 C 438 739 382 757 338 781 M 343 760 L 346 761 C 389 721 394 711 394 707 C 394 701 378 696 354 691 C 352 714 350 737 343 760 M 347 646 C 350 656 352 666 352 678 C 404 656 441 648 500 648 C 559 648 596 656 648 678 C 648 666 650 656 653 646 C 594 626 560 620 500 620 C 440 620 406 626 347 646 M 348 408 L 348 377 C 348 362 355 352 406 348 C 444 345 444 344 444 329 L 444 240 C 444 231 448 220 463 220 L 501 220 C 516 220 520 231 520 240 L 520 329 C 520 344 520 345 558 348 C 609 352 616 362 616 377 L 616 408 C 616 416 611 428 597 428 C 591 428 574 427 559 424 C 545 421 536 420 526 420 C 520 420 520 424 520 430 L 520 537 C 520 544 516 556 505 556 L 459 556 C 448 556 444 544 444 537 L 444 430 C 444 424 444 420 438 420 C 428 420 419 421 405 424 C 390 427 373 428 367 428 C 353 428 348 416 348 408 M 364 391 C 364 402 365 410 375 410 C 381 410 392 409 407 406 C 421 403 437 401 445 401 C 457 401 460 409 460 418 L 460 529 C 460 541 462 544 482 544 C 502 544 504 541 504 529 L 504 418 C 504 409 507 401 519 401 C 527 401 543 403 557 406 C 572 409 583 410 589 410 C 599 410 600 402 600 391 C 600 374 595 367 547 364 C 512 362 504 358 504 345 L 504 249 C 504 233 496 232 482 232 C 468 232 460 233 460 249 L 460 345 C 460 358 452 362 417 364 C 369 367 364 374 364 391 M 440 696 C 440 702 490 726 500 726 C 510 726 560 702 560 696 C 560 688 512 658 500 658 C 488 658 440 688 440 696 M 467 86 C 467 97 474 104 483 112 C 494 104 499 98 499 85 C 499 76 493 70 484 70 C 474 70 467 76 467 86 M 513 846 C 532 876 560 902 597 902 C 626 902 655 897 684 888 C 711 879 745 872 776 872 C 809 872 836 878 858 894 L 859 893 C 858 887 848 875 843 871 L 844 869 C 857 869 873 870 882 872 L 883 870 C 860 852 824 834 780 834 C 751 834 726 840 700 850 C 674 860 650 868 616 868 C 592 868 574 862 556 843 C 541 846 531 846 513 846 M 556 172 C 659 272 690 361 690 510 L 695 510 C 706 472 710 441 710 394 C 710 297 667 222 587 137 C 576 153 568 161 556 172 M 570 86 C 570 96 576 104 587 113 C 596 103 600 97 600 86 C 600 78 595 70 585 70 C 576 70 570 77 570 86 M 606 707 C 606 711 611 721 654 761 L 657 760 C 650 737 648 714 646 691 C 622 696 606 701 606 707"/>
</g>
</svg>
